# xmcd
#
# Track frame offsets: 
#        150
#        25288
#        40200
#        60400
#        78900
#        97225
#        114950
#        129188
#        149813
#        168750
#        189525
#        212550
#
# Disc length: 3019 seconds
#
# Revision: 1
# Processed by: cddbd v1.5.2PL0 Copyright (c) Steve Scherf et al.
# Submitted via: ExactAudioCopy v1.3
#
DISCID=9f0bc90c
DTITLE=??? - ?????
DYEAR=1994
DGENRE=Pop
TTITLE0=?????
TTITLE1=??
TTITLE2=?
TTITLE3=????
TTITLE4=????
TTITLE5=???????
TTITLE6=????
TTITLE7=??
TTITLE8=???
TTITLE9=?????
TTITLE10=?????
TTITLE11=????
EXTD=
EXTT0=
EXTT1=
EXTT2=
EXTT3=
EXTT4=
EXTT5=
EXTT6=
EXTT7=
EXTT8=
EXTT9=
EXTT10=
EXTT11=
PLAYORDER=
